<?xml version="1.0" standalone="no"?>
<!DOCTYPE svg PUBLIC "-//W3C//DTD SVG 20010904//EN"
 "http://www.w3.org/TR/2001/REC-SVG-20010904/DTD/svg10.dtd">
<svg version="1.0" xmlns="http://www.w3.org/2000/svg"
 width="1961.000000pt" height="2048.000000pt" viewBox="0 0 1961.000000 2048.000000"
 preserveAspectRatio="xMidYMid meet">

<g transform="translate(0.000000,2048.000000) scale(0.100000,-0.100000)"
fill="#000000" stroke="none">
<path d="M2 15663 c1 -2650 5 -4728 9 -4618 67 1834 644 3600 1674 5125 355
525 731 978 1199 1445 536 535 1089 976 1704 1361 1445 905 3016 1400 4737
1493 83 4 -1982 9 -4587 10 l-4738 1 2 -4817z"/>
<path d="M10285 20469 c362 -20 729 -57 985 -99 63 -10 138 -21 165 -25 183
-25 722 -145 995 -221 1465 -410 2764 -1123 3925 -2153 192 -170 609 -590 790
-796 572 -651 1025 -1320 1410 -2080 125 -247 162 -326 277 -595 455 -1058
725 -2276 767 -3455 4 -115 9 1960 9 4613 l2 4822 -4732 -1 c-2603 -1 -4670
-6 -4593 -10z"/>
<path d="M19600 10046 c0 -733 -30 -1184 -115 -1731 -105 -683 -250 -1242
-496 -1925 l-24 -65 -3 410 -3 410 -45 -110 c-87 -213 -148 -351 -221 -505
l-73 -155 0 -421 0 -421 -34 -74 c-121 -262 -403 -750 -635 -1099 l-96 -144
-5 424 c-5 421 -5 424 -24 395 -46 -72 -289 -395 -368 -490 l-28 -33 0 -432 0
-432 -47 -56 c-331 -394 -555 -632 -930 -987 l-73 -68 0 432 0 431 -127 -110
c-139 -122 -296 -252 -349 -289 l-34 -24 0 -436 -1 -436 -112 -85 c-220 -168
-588 -423 -727 -506 -19 -12 -73 -45 -120 -74 -100 -62 -339 -200 -345 -200
-3 0 -5 193 -5 430 l0 430 -102 -56 c-57 -30 -172 -90 -257 -132 l-154 -77 4
-430 4 -429 -60 -30 c-182 -89 -538 -239 -765 -323 -260 -95 -681 -233 -713
-233 -16 0 -17 32 -17 426 l0 426 -32 -6 c-18 -3 -107 -26 -198 -50 -91 -24
-191 -49 -222 -56 l-58 -11 0 -434 c0 -404 -1 -434 -17 -439 -10 -3 -54 -12
-98 -20 -44 -8 -120 -24 -170 -35 -205 -44 -608 -105 -870 -131 -238 -24 -599
-50 -692 -50 l-63 0 0 434 0 434 -250 -1 -250 0 0 -434 0 -433 -87 0 c-210 0
-813 53 -1083 95 -315 49 -418 66 -525 90 -60 13 -136 29 -167 35 l-58 11 0
434 0 433 -77 17 c-43 10 -143 35 -223 55 -80 21 -157 41 -172 44 l-28 6 0
-431 c0 -390 -2 -431 -16 -425 -9 3 -28 9 -42 12 -85 19 -491 152 -722 237
-219 81 -580 232 -733 308 l-47 23 0 430 0 431 -246 125 c-135 69 -249 126
-255 128 -5 2 -9 -161 -9 -422 0 -234 -3 -426 -6 -426 -8 0 -85 43 -254 143
-319 187 -674 426 -958 642 l-91 70 -1 431 0 432 -34 28 c-18 16 -62 52 -96
79 -35 28 -122 100 -193 160 -72 61 -143 120 -158 133 l-29 23 0 -425 c0 -234
-3 -426 -7 -426 -15 0 -423 400 -612 600 -128 135 -304 336 -409 465 l-32 40
0 430 0 431 -43 51 c-84 102 -140 176 -330 431 l-47 64 0 -423 c0 -363 -2
-421 -14 -409 -19 20 -195 286 -288 435 -104 166 -249 420 -350 610 -142 268
-128 193 -128 676 l0 419 -76 163 c-70 148 -156 345 -230 522 l-29 70 -3 -410
-3 -410 -40 105 c-204 539 -399 1268 -485 1815 -55 352 -64 421 -84 631 -38
406 -42 497 -49 1109 -4 336 -8 -1760 -9 -4657 l-2 -5268 9805 0 9805 0 0
5270 c0 2899 -2 5270 -5 5270 -3 0 -5 -223 -5 -494z"/>
</g>
</svg>
